<svg width="512" height="512" viewBox="0 0 512 512" fill="none" xmlns="http://www.w3.org/2000/svg">
  <rect width="512" height="512" rx="64" fill="#000000"/>
  <g transform="translate(78,36)">
    <path d="M143 8C149 3 157 0 166 0H261C280 0 295 18 290 36L260 138H357C375 138 390 154 390 172C390 180 388 188 384 195L219 420C210 433 195 440 179 440H86C67 440 52 422 56 403L87 301H5C-13 301 -28 286 -28 268C-28 258 -25 249 -20 241L143 8Z" fill="#E6E6E6"/>
    <path d="M158 0C164 -5 172 -8 181 -8H276C295 -8 310 10 305 28L275 130H372C390 130 405 146 405 164C405 172 403 180 399 187L234 412C225 425 210 432 194 432H101C82 432 67 414 71 395L102 293H20C2 293 -13 278 -13 260C-13 250 -10 241 -5 233L158 0Z" fill="#3EB34F"/>
    <path d="M173 -12C179 -17 187 -20 196 -20H291C310 -20 325 -2 320 16L290 118H387C405 118 420 134 420 152C420 160 418 168 414 175L249 400C240 413 225 420 209 420H116C97 420 82 402 86 383L117 281H35C17 281 2 266 2 248C2 238 5 229 10 221L173 -12Z" fill="#FFF200"/>
  </g>
</svg>
